# xmcd
#
# Track frame offsets:
#	150
#	18956
#	34997
#	54112
#	75884
#	85957
#	102207
#	130184
#	152469
#	172333
#	188558
#	204257
#
# Disc length: 3001 seconds
# Revision: 2
# Processed by: cddbd v1.5.2PL0 Copyright (c) Steve Scherf et al.
# Submitted via: dBpowerAMP V12.0
#
DISCID=850bb70c
DTITLE=Walt Wilkins - Rivertown
DYEAR=2008
DGENRE=Country
TTITLE0=Poetry
TTITLE1=Spacewalk
TTITLE2=Genevieve
TTITLE3=Walnut Street
TTITLE4=Waltz On The White Sands
TTITLE5=One Of Those Moments
TTITLE6=Night Rain City
TTITLE7=Seven Hillsides
TTITLE8=Some Men Fall
TTITLE9=Velvet Sky
TTITLE10=Hey Tomorrow
TTITLE11=Field Of Blue
EXTD=
EXTT0=
EXTT1=
EXTT2=
EXTT3=
EXTT4=
EXTT5=
EXTT6=
EXTT7=
EXTT8=
EXTT9=
EXTT10=
EXTT11=
PLAYORDER=
